<?xml version="1.0" encoding="utf-8"?>
<!-- Generator: Adobe Illustrator 16.0.0, SVG Export Plug-In . SVG Version: 6.00 Build 0)  -->
<!DOCTYPE svg PUBLIC "-//W3C//DTD SVG 1.1//EN" "http://www.w3.org/Graphics/SVG/1.1/DTD/svg11.dtd">
<svg version="1.1" id="Layer_1" xmlns="http://www.w3.org/2000/svg" xmlns:xlink="http://www.w3.org/1999/xlink" x="0px" y="0px"
	 width="35px" height="37px" viewBox="0 0 35 37" enable-background="new 0 0 35 37" xml:space="preserve">
<path fill="#FFFFFF" d="M28.756,12.382c-1.162-1.964-2.738-3.518-4.73-4.664C22.033,6.572,19.857,6,17.5,6
	c-2.358,0-4.534,0.573-6.525,1.718c-1.992,1.146-3.568,2.7-4.731,4.664C5.081,14.345,4.5,16.488,4.5,18.813
	c0,2.792,0.827,5.302,2.48,7.533c1.653,2.229,3.789,3.773,6.406,4.631c0.305,0.056,0.531,0.017,0.677-0.117
	c0.146-0.133,0.22-0.301,0.22-0.5c0-0.033-0.003-0.334-0.009-0.9c-0.006-0.568-0.008-1.063-0.008-1.484l-0.39,0.065
	c-0.248,0.045-0.562,0.063-0.939,0.06c-0.377-0.005-0.77-0.045-1.176-0.117c-0.406-0.071-0.784-0.238-1.134-0.5
	c-0.35-0.263-0.598-0.604-0.745-1.026l-0.169-0.383c-0.113-0.257-0.291-0.54-0.533-0.853c-0.242-0.312-0.488-0.521-0.736-0.634
	l-0.119-0.083c-0.079-0.057-0.152-0.123-0.22-0.201c-0.068-0.076-0.119-0.154-0.152-0.232c-0.034-0.078-0.006-0.143,0.084-0.192
	c0.09-0.05,0.254-0.073,0.491-0.073l0.338,0.049c0.226,0.045,0.505,0.179,0.838,0.4c0.333,0.223,0.607,0.512,0.821,0.867
	c0.259,0.456,0.572,0.804,0.939,1.043c0.367,0.238,0.736,0.357,1.108,0.357c0.372,0,0.694-0.026,0.965-0.082
	c0.271-0.057,0.524-0.141,0.762-0.252c0.102-0.744,0.378-1.316,0.829-1.718c-0.643-0.067-1.221-0.167-1.735-0.301
	c-0.513-0.134-1.043-0.351-1.591-0.651c-0.548-0.3-1.002-0.672-1.363-1.117c-0.361-0.444-0.657-1.028-0.888-1.752
	c-0.231-0.723-0.347-1.556-0.347-2.501c0-1.346,0.446-2.492,1.337-3.437c-0.418-1.012-0.378-2.146,0.118-3.403
	c0.327-0.1,0.813-0.025,1.456,0.225c0.643,0.25,1.114,0.465,1.413,0.643c0.299,0.178,0.539,0.329,0.719,0.451
	c1.05-0.289,2.133-0.434,3.25-0.434c1.116,0,2.201,0.145,3.25,0.434l0.644-0.4c0.439-0.267,0.959-0.512,1.558-0.734
	c0.599-0.223,1.056-0.284,1.372-0.183c0.507,1.256,0.553,2.391,0.135,3.403c0.891,0.945,1.337,2.092,1.337,3.438
	c0,0.945-0.116,1.782-0.347,2.51c-0.231,0.729-0.53,1.313-0.896,1.752c-0.367,0.439-0.824,0.811-1.371,1.109
	c-0.548,0.299-1.078,0.517-1.592,0.649c-0.514,0.134-1.092,0.234-1.734,0.302c0.586,0.5,0.879,1.289,0.879,2.368v3.521
	c0,0.199,0.072,0.367,0.213,0.5c0.142,0.134,0.363,0.173,0.668,0.117c2.619-0.856,4.755-2.399,6.406-4.631
	c1.653-2.229,2.48-4.74,2.48-7.532C30.499,16.488,29.918,14.345,28.756,12.382z"/>
<path display="none" fill="#FFFFFF" d="M29.75,21.714V31h-5.357v-8.664c0-2.176-0.775-3.661-2.716-3.661
	c-1.479,0-2.36,1.001-2.749,1.97c-0.142,0.347-0.178,0.828-0.178,1.313V31h-5.36c0,0,0.072-14.674,0-16.194h5.36v2.295
	c-0.012,0.018-0.025,0.036-0.036,0.053h0.036v-0.053c0.712-1.102,1.982-2.676,4.83-2.676C27.105,14.425,29.75,16.74,29.75,21.714z
	 M7.783,7C5.949,7,4.75,8.208,4.75,9.797c0,1.554,1.165,2.799,2.962,2.799h0.036c1.869,0,3.031-1.245,3.031-2.799
	C10.744,8.208,9.617,7,7.783,7z M5.068,31h5.358V14.806H5.068V31z"/>
<path display="none" fill="none" d="M6.162,12.417C8.247,8.537,12.428,6,17.25,6c3.121,0,5.973,1.327,8.163,3.2
	c-0.626-0.121-1.31,0.015-1.997,0.408c-1.611,0.921-2.139,3.531-0.049,4.842c1.305,0.813,1.77,2.85,1.725,4.094
	c-0.043,1.245-3.031,6.968-3.031,6.968l-2.912-9.973c0,0-0.1-0.7-0.1-0.901c0-0.254,0.084-0.566,0.241-0.744
	c0.108-0.119,0.272-0.367,0.47-0.367h1.379v-1.108h-7.5v1.108h0.232c0.246,0,0.486,0.329,0.718,0.566
	c0.273,0.282,0.618,1.344,1.036,2.444l1.091,3.586l-2.351,5.419L11.786,14.71c0,0,0.076-0.743,0.232-0.869
	c0.102-0.086,0.258-0.315,0.438-0.315h0.07v-1.108L6.162,12.417L6.162,12.417z M7.632,14.299c0,0-0.606-0.773-1.25-0.773H5.729
	c-0.631,1.386-0.979,3.247-0.979,4.953c0,5.132,3.154,9.533,7.647,11.408L7.632,14.299z M28.007,12.318
	c0.237,1.125,0.188,2.489-0.274,3.99c-1.209,3.904-4.2,10.928-5.358,13.604c4.349-1.938,7.377-6.262,7.377-11.289
	C29.75,16.32,29.113,14.165,28.007,12.318z M17.503,22.861l-3.196,7.789C15.25,30.876,16.235,31,17.25,31
	c1.05,0,2.068-0.13,3.043-0.371L17.503,22.861z"/>
</svg>
