<?xml version="1.0" encoding="utf-8"?>
<!-- Generator: Adobe Illustrator 16.0.0, SVG Export Plug-In . SVG Version: 6.00 Build 0)  -->
<!DOCTYPE svg PUBLIC "-//W3C//DTD SVG 1.1//EN" "http://www.w3.org/Graphics/SVG/1.1/DTD/svg11.dtd">
<svg version="1.1" id="Layer_1" xmlns="http://www.w3.org/2000/svg" xmlns:xlink="http://www.w3.org/1999/xlink" x="0px" y="0px"
	 width="35px" height="37px" viewBox="0 0 35 37" enable-background="new 0 0 35 37" xml:space="preserve">
<path fill-rule="evenodd" clip-rule="evenodd" fill="#B3B4B4" d="M0,0h35v37H0V0z"/>
<path fill="#FFFFFF" d="M28.756,12.382c-1.162-1.964-2.739-3.518-4.73-4.664C22.033,6.572,19.858,6,17.5,6s-4.534,0.573-6.525,1.718
	c-1.992,1.146-3.568,2.7-4.731,4.664C5.081,14.345,4.5,16.488,4.5,18.813c0,2.792,0.827,5.302,2.48,7.533
	c1.653,2.229,3.789,3.773,6.406,4.63c0.305,0.056,0.531,0.017,0.677-0.117c0.146-0.133,0.22-0.3,0.22-0.5
	c0-0.033-0.003-0.334-0.009-0.9c-0.006-0.568-0.008-1.063-0.008-1.485l-0.39,0.066c-0.248,0.045-0.562,0.063-0.939,0.059
	s-0.77-0.044-1.176-0.117c-0.406-0.071-0.784-0.238-1.134-0.5c-0.35-0.262-0.598-0.604-0.745-1.026l-0.169-0.383
	c-0.113-0.256-0.291-0.54-0.533-0.852s-0.488-0.522-0.736-0.634l-0.119-0.083c-0.079-0.057-0.152-0.123-0.22-0.201
	c-0.068-0.077-0.119-0.155-0.152-0.233c-0.034-0.078-0.006-0.142,0.084-0.192c0.09-0.05,0.254-0.074,0.491-0.074l0.338,0.05
	c0.226,0.044,0.505,0.178,0.838,0.4s0.607,0.512,0.821,0.867c0.259,0.456,0.572,0.804,0.939,1.043
	c0.367,0.239,0.736,0.358,1.108,0.358s0.694-0.027,0.965-0.083c0.271-0.056,0.524-0.14,0.762-0.251
	c0.102-0.745,0.378-1.317,0.829-1.718c-0.643-0.067-1.221-0.167-1.735-0.301c-0.513-0.134-1.043-0.351-1.591-0.651
	c-0.548-0.3-1.002-0.672-1.363-1.117s-0.657-1.029-0.888-1.752c-0.231-0.723-0.347-1.556-0.347-2.502
	c0-1.346,0.446-2.492,1.337-3.437c-0.418-1.012-0.378-2.146,0.118-3.403c0.327-0.1,0.813-0.025,1.456,0.225
	c0.643,0.25,1.114,0.465,1.413,0.643c0.299,0.178,0.539,0.329,0.719,0.451c1.05-0.289,2.133-0.434,3.25-0.434
	c1.117,0,2.201,0.145,3.25,0.434l0.643-0.4c0.44-0.267,0.96-0.512,1.558-0.734c0.599-0.223,1.056-0.284,1.372-0.183
	c0.507,1.256,0.553,2.391,0.135,3.403c0.891,0.945,1.337,2.092,1.337,3.438c0,0.945-0.116,1.782-0.347,2.51
	c-0.231,0.729-0.53,1.312-0.896,1.752c-0.367,0.439-0.824,0.81-1.371,1.109c-0.548,0.3-1.078,0.517-1.592,0.65
	s-1.092,0.234-1.734,0.301c0.586,0.5,0.879,1.29,0.879,2.369v3.521c0,0.199,0.071,0.366,0.213,0.5
	c0.141,0.133,0.363,0.172,0.668,0.116c2.618-0.856,4.754-2.399,6.406-4.63c1.653-2.229,2.48-4.74,2.48-7.532
	C30.499,16.488,29.918,14.345,28.756,12.382z"/>
<path display="none" fill="#FFFFFF" d="M29.75,21.714V31h-5.358v-8.664c0-2.176-0.775-3.661-2.715-3.661
	c-1.48,0-2.361,1.001-2.749,1.969c-0.142,0.347-0.178,0.828-0.178,1.313V31h-5.36c0,0,0.072-14.674,0-16.194h5.36v2.295
	c-0.012,0.018-0.025,0.036-0.036,0.053h0.036v-0.053c0.712-1.102,1.983-2.676,4.83-2.676C27.106,14.425,29.75,16.74,29.75,21.714z
	 M7.783,7C5.949,7,4.75,8.208,4.75,9.797c0,1.554,1.165,2.799,2.962,2.799h0.036c1.869,0,3.031-1.245,3.031-2.799
	C10.744,8.208,9.617,7,7.783,7z M5.068,31h5.358V14.806H5.068V31z"/>
<path display="none" fill="none" d="M6.162,12.417C8.247,8.537,12.428,6,17.25,6c3.121,0,5.973,1.327,8.163,3.2
	c-0.626-0.121-1.31,0.015-1.997,0.408c-1.611,0.921-2.138,3.531-0.049,4.842c1.305,0.813,1.769,2.85,1.725,4.094
	c-0.043,1.245-3.032,6.968-3.032,6.968l-2.911-9.973c0,0-0.1-0.7-0.1-0.901c0-0.254,0.084-0.566,0.241-0.744
	c0.108-0.119,0.273-0.367,0.47-0.367h1.379v-1.108h-7.5v1.108h0.232c0.246,0,0.486,0.329,0.718,0.566
	c0.273,0.282,0.618,1.344,1.036,2.444l1.091,3.586l-2.351,5.419L11.786,14.71c0,0,0.076-0.743,0.232-0.869
	c0.102-0.086,0.258-0.315,0.438-0.315h0.07v-1.108H6.162L6.162,12.417z M7.632,14.299c0,0-0.606-0.773-1.25-0.773H5.729
	c-0.631,1.386-0.979,3.247-0.979,4.953c0,5.132,3.154,9.533,7.647,11.408L7.632,14.299z M28.007,12.318
	c0.237,1.125,0.188,2.489-0.274,3.99c-1.209,3.904-4.201,10.928-5.359,13.604c4.348-1.937,7.377-6.262,7.377-11.289
	C29.75,16.32,29.113,14.165,28.007,12.318z M17.503,22.862l-3.196,7.789C15.25,30.876,16.235,31,17.25,31
	c1.05,0,2.069-0.13,3.043-0.371L17.503,22.862z"/>
</svg>
