<?xml version="1.0" encoding="utf-8"?>
<!-- Generator: Adobe Illustrator 16.0.0, SVG Export Plug-In . SVG Version: 6.00 Build 0)  -->
<!DOCTYPE svg PUBLIC "-//W3C//DTD SVG 1.1//EN" "http://www.w3.org/Graphics/SVG/1.1/DTD/svg11.dtd">
<svg version="1.1" id="Layer_1" xmlns="http://www.w3.org/2000/svg" xmlns:xlink="http://www.w3.org/1999/xlink" x="0px" y="0px"
	 width="64px" height="40.998px" viewBox="0 0 64 40.998" enable-background="new 0 0 64 40.998" xml:space="preserve">
<g>
	<g>
		<path fill="#F37768" d="M7.226,0L0,9.642V24.19l7.226-3.529V0z M55.312,14.205L8.258,0v20.402l19.157,2.211l18.417-3.75
			c0.032-0.007,0.064,0.002,0.098,0.002s0.065-0.011,0.1-0.004l9.662,1.79L55.312,14.205z M26.838,14.549l-9.29-1.593V8.713
			l9.29,2.36V14.549z M26.838,10.006l-9.29-2.36V6.284l9.29,2.583V10.006z M25.161,22.942l-17.29-1.808l-7.097,3.228l13.118,0.904
			L25.161,22.942z M55.754,21.714l-9.303-1.723v21.007l13.746-1.656h0.705v-0.085L64,38.884V23.243L55.754,21.714z M54.709,39.059
			l-6.193,0.757V24.923l5.85,0.802l0.344,0.046V39.059z M59.871,38.429l-4.129,0.504V25.912l4.129,0.565V38.429z M62.968,38.05
			l-2.065,0.252V26.618l2.065,0.283V38.05z M11.355,26.937v9.883l10.322,1.266v-8.472l5.161-0.603v9.707l18.582,2.279V20.001
			l-14.701,2.994L11.355,26.937z"/>
	</g>
</g>
</svg>
